<?xml version="1.0" standalone="no"?>
<!DOCTYPE svg PUBLIC "-//W3C//DTD SVG 20010904//EN"
 "http://www.w3.org/TR/2001/REC-SVG-20010904/DTD/svg10.dtd">
<svg version="1.0" xmlns="http://www.w3.org/2000/svg"
 width="1250.000000pt" height="1250.000000pt" viewBox="0 0 1250.000000 1250.000000"
 preserveAspectRatio="xMidYMid meet">
<metadata>
Created by potrace 1.14, written by Peter Selinger 2001-2017
</metadata>
<g transform="translate(0.000000,1250.000000) scale(0.100000,-0.100000)"
fill="#000000" stroke="none">
<path d="M2418 8235 c-1 -1 -41 -6 -88 -9 -95 -7 -126 -12 -220 -32 -14 -3
-36 -7 -50 -10 -166 -34 -397 -153 -510 -263 -30 -29 -99 -112 -138 -166 -22
-31 -99 -208 -108 -250 -43 -194 -50 -242 -60 -370 -4 -54 -9 -2817 -5 -2872
1 -10 170 -13 811 -13 l810 0 0 1995 0 1996 -219 -1 c-120 -1 -221 -3 -223 -5z"/>
<path d="M3109 8233 c-1 -11 -1 -3954 0 -3970 1 -10 171 -13 815 -13 l813 0 0
1995 0 1995 -813 0 c-448 0 -814 -3 -815 -7z"/>
<path d="M4980 6246 l0 -1996 810 0 c641 0 810 3 811 13 0 6 1 624 1 1372 1
1186 -3 1593 -17 1614 -2 4 -6 32 -9 63 -24 221 -125 444 -269 591 -102 103
-269 204 -402 242 -5 2 -39 12 -75 23 -36 12 -94 26 -130 33 -36 6 -76 13 -90
16 -56 10 -137 14 -377 20 l-253 5 0 -1996z"/>
<path d="M7720 8117 c-1 -148 -1 -128 2 -265 2 -61 0 -112 -4 -112 -4 0 -5 -6
-2 -14 9 -23 10 -226 1 -226 -5 0 -5 -5 -2 -11 4 -6 6 -94 6 -197 -1 -103 -2
-191 -2 -197 0 -5 2 -61 3 -123 2 -61 0 -112 -4 -112 -4 0 -5 -6 -3 -13 9 -22
10 -227 2 -227 -5 0 -5 -5 -2 -11 4 -5 6 -58 5 -117 0 -59 -1 -114 -1 -122 1
-8 1 -62 0 -120 0 -58 0 -109 0 -115 0 -5 2 -61 3 -123 2 -61 0 -112 -4 -112
-4 0 -5 -6 -3 -13 9 -22 10 -227 2 -227 -5 0 -5 -5 -2 -11 4 -5 6 -58 5 -117
0 -59 -1 -111 -1 -117 0 -5 2 -61 3 -123 2 -61 0 -112 -4 -112 -4 0 -5 -6 -2
-14 9 -23 10 -226 1 -226 -5 0 -6 -4 -2 -10 6 -9 10 -145 5 -165 -1 -5 -2 -14
-1 -20 1 -5 2 -53 1 -105 -1 -52 -1 -102 -1 -110 3 -70 1 -222 -3 -228 -2 -4
1 -16 7 -28 12 -20 18 -20 795 -20 l782 0 0 1993 0 1992 -789 0 -790 -1 -1
-121z"/>
<path d="M11027 8234 c-1 -1 -87 -4 -192 -8 -104 -3 -199 -7 -210 -9 -11 -3
-51 -8 -90 -12 -38 -4 -77 -9 -86 -10 -9 -2 -34 -6 -55 -9 -209 -33 -405 -100
-494 -171 -159 -126 -256 -311 -294 -560 -17 -114 -20 -194 -20 -580 l-1 -420
245 1 c313 0 448 11 660 50 98 19 100 19 120 26 8 3 53 18 100 32 185 59 363
175 445 290 53 76 101 156 110 186 1 3 8 21 17 41 9 20 19 51 23 70 4 19 10
39 13 44 4 6 7 15 8 20 17 79 24 122 29 162 4 26 9 59 12 73 8 39 13 780 5
781 -14 1 -344 4 -345 3z"/>
<path d="M9586 5688 c2 -255 5 -479 8 -498 3 -19 7 -53 10 -75 9 -63 31 -156
60 -250 43 -142 159 -302 277 -382 86 -59 275 -140 371 -159 13 -2 39 -7 58
-10 19 -4 44 -9 55 -11 11 -3 35 -7 53 -9 18 -2 36 -5 40 -8 5 -3 44 -8 88
-11 43 -4 95 -9 114 -11 19 -3 176 -7 347 -11 l313 -5 -5 393 c-2 217 -6 408
-8 424 -3 17 -8 54 -12 84 -4 30 -9 63 -12 75 -2 12 -9 40 -14 64 -5 24 -11
48 -15 53 -3 5 -7 21 -10 35 -9 47 -62 171 -108 247 -138 234 -365 381 -711
463 -38 9 -83 18 -100 20 -16 3 -40 7 -52 9 -13 3 -49 8 -80 11 -32 3 -74 7
-93 10 -19 2 -157 7 -306 10 l-271 6 3 -464z"/>
</g>
</svg>
